<?xml version="1.0" encoding="utf-8"?>
<!-- Generator: Adobe Illustrator 27.5.0, SVG Export Plug-In . SVG Version: 6.00 Build 0)  -->
<svg version="1.1" xmlns="http://www.w3.org/2000/svg" xmlns:xlink="http://www.w3.org/1999/xlink" x="0px" y="0px"
	 viewBox="0 0 2200 2200" style="enable-background:new 0 0 2200 2200;" xml:space="preserve">
<g id="Background">
	<rect style="fill:#947bbe;" width="2200" height="2200"/>
</g>
<g id="Objects">
	<path d="M1846.947,519.376c-1.521-4.302-4.808-13.979-6.335-18.087c-2.356-5.743-4.89-12.101-7.33-17.768
		c-2.132-4.346-6.125-13.157-8.312-17.379c-3.021-5.47-6.127-11.555-9.284-16.915c-4.081-6.512-9.334-15.547-13.891-21.687
		c-2.364-3.285-4.907-7.27-7.486-10.48l-7.919-10.163c-0.671-0.838-1.308-1.701-2.007-2.516c-2.951-3.492-7.583-8.69-10.551-12.159
		c-3.159-3.414-9.922-10.519-13.354-13.936c-4.386-3.961-9.401-9.062-14.143-13.106c-3.622-3.002-8.644-7.33-12.312-10.298
		c-5.026-3.737-12.746-9.891-18.048-13.326c-118.386-81.42-277.85-85.574-409.286-36.117
		c-119.243,44.467-209.83,133.262-266.376,246.165c-4.653,9.293-9.029,18.703-13.166,28.204
		C959.981,477.012,841.509,407.65,718.258,404.301c-237.648-5.627-371.914,231.051-335.446,447.126
		c2.468,15.127,5.906,30.347,10.101,45.097c5.28,18.855,11.163,38.453,17.62,56.903c1.866,5.071,5.63,16.03,7.508,21.061
		c1.913,4.717,6.162,15.94,8.188,20.824c1.598,4.159,3.903,9.635,5.748,13.766c2.502,5.492,6.281,15.031,9.038,20.472
		c23.865,51.815,53.792,101.265,88.716,146.24c96.404,124.607,231.51,210.453,365.324,289.545c3.098,1.832,7.147,0.965,9.185-2.058
		c2.116-3.138,1.288-7.397-1.85-9.513c-95.161-64.325-190.431-130.126-270.023-213.398
		c-98.836-103.386-158.237-221.033-189.246-360.107c-44.176-190.867,76.624-428.381,296.709-393.662
		c122.115,20.281,234.163,123.313,244.906,249.62c5.741,55.327,83.469,60.246,95.598,5.297
		c12.097-62.252,35.489-121.906,69.792-174.779c31.521-48.462,72.506-90.75,121.662-121.073
		c100.671-61.612,241.516-73.445,344.262-13.728l6.985,4.271c0.597,0.344,1.155,0.711,1.688,1.092
		c2.347,1.66,5.81,3.894,8.182,5.553c2.877,2.193,6.594,4.99,9.402,7.197l6.027,5.073c0.5,0.424,1.017,0.827,1.505,1.265l1.43,1.353
		c0,0,2.869,2.689,2.868,2.689c3.49,3.012,7.766,7.794,11.1,11.086c2.88,3.366,7.528,8.45,10.085,11.977
		c1.259,1.665,3.696,4.535,4.761,6.199l4.488,6.4c0.368,0.537,0.773,1.046,1.114,1.603l1.026,1.667l2.068,3.318
		c2.558,3.838,5.569,9.429,7.846,13.519c1.653,3.408,3.551,7.099,5.197,10.539c0.544,1.189,1.021,2.414,1.54,3.616l3.096,7.216
		l2.689,7.415l1.377,3.69l1.156,3.791c0,0,2.346,7.563,2.346,7.563c0.941,3.7,1.962,7.878,2.93,11.584
		c0.352,1.277,0.53,2.619,0.808,3.924c0,0,1.567,7.865,1.567,7.865c0.821,4.363,1.373,9.584,2.116,13.972
		c7.378,64.211-7.228,127.921-31.733,187.522c-1.799,4.759-5.135,12.25-7.224,16.857c-2.287,5.035-5.171,11.848-7.79,16.754
		c-39.772,80.98-91.009,154.476-151.044,222.428c-70.779,80.509-156.164,154.807-230.637,232.235
		c-94.35,96.498-176.104,208.601-231.605,332.076c-26.334,57.335-47.934,117.647-65.185,178.228
		c-7.568,26.927-14.353,53.997-20.211,81.233c-0.658,3.058,0.839,6.281,3.789,7.677c3.467,1.646,7.619,0.126,9.214-3.361
		c5.926-12.486,11.559-25.076,17.597-37.494c17.501-37.152,36.295-73.983,56.051-109.826
		c52.109-94.551,113.963-182.904,187.652-261.033c74.021-79.411,157.951-145.379,242.065-215.652
		c38.007-31.855,75.688-64.755,111.161-99.572C1762.964,987.946,1918.804,752.614,1846.947,519.376z"/>
</g>
</svg>
